<?xml version="1.0" standalone="no"?><!DOCTYPE svg PUBLIC "-//W3C//DTD SVG 1.1//EN" "http://www.w3.org/Graphics/SVG/1.1/DTD/svg11.dtd"><svg t="1628588091960" class="icon" viewBox="0 0 1024 1024" version="1.1" xmlns="http://www.w3.org/2000/svg" p-id="1990" xmlns:xlink="http://www.w3.org/1999/xlink" width="128" height="128"><defs><style type="text/css"></style></defs><path d="M512 1024c-59.733 0-106.667-46.933-106.667-106.667S452.267 810.667 512 810.667 618.667 857.6 618.667 917.333 571.733 1024 512 1024z m0-810.667c-59.733 0-106.667-46.933-106.667-106.666S452.267 0 512 0s106.667 46.933 106.667 106.667S571.733 213.333 512 213.333z m0 405.334c-59.733 0-106.667-46.934-106.667-106.667S452.267 405.333 512 405.333 618.667 452.267 618.667 512 571.733 618.667 512 618.667z" fill="#8C8C8C" p-id="1991"></path></svg>