<?xml version="1.0" standalone="no"?><!DOCTYPE svg PUBLIC "-//W3C//DTD SVG 1.1//EN" "http://www.w3.org/Graphics/SVG/1.1/DTD/svg11.dtd"><svg t="1628345673466" class="icon" viewBox="0 0 1024 1024" version="1.1" xmlns="http://www.w3.org/2000/svg" p-id="10603" width="246" height="246" xmlns:xlink="http://www.w3.org/1999/xlink"><defs><style type="text/css"></style></defs><path d="M640.032 640h170.672A85.328 85.328 0 0 0 896.032 554.672v-85.344A85.328 85.328 0 0 0 810.704 384H640.032a85.328 85.328 0 0 0-85.328 85.328v85.344A85.328 85.328 0 0 0 640.032 640z m-277.344 0h128A21.328 21.328 0 0 0 512.032 618.672V576a21.328 21.328 0 0 0-21.328-21.328h-128A21.328 21.328 0 0 0 341.36 576v42.672A21.328 21.328 0 0 0 362.688 640z m0-170.672h128A21.328 21.328 0 0 0 512.032 448v-42.672A21.328 21.328 0 0 0 490.704 384h-128a21.328 21.328 0 0 0-21.328 21.328V448a21.328 21.328 0 0 0 21.312 21.328z m-213.328 0h128A21.328 21.328 0 0 0 298.704 448v-42.672A21.328 21.328 0 0 0 277.36 384h-128A21.328 21.328 0 0 0 128.032 405.328V448a21.328 21.328 0 0 0 21.328 21.328z m801.6-298.656h-187.2A63.248 63.248 0 0 0 768.032 149.328a64 64 0 0 0-128 0 62.864 62.864 0 0 0 4.304 21.344H379.728A62.864 62.864 0 0 0 384.032 149.328a64 64 0 1 0-128 0 62.864 62.864 0 0 0 4.304 21.344h-187.2c-40.224 0-73.136 33.6-73.136 74.656V768c0 40 45.104 85.328 85.328 85.328H128.032V896c0 20.528 22.544 42.672 42.672 42.672h128c20.112 0 42.656-22.144 42.656-42.672v-42.672h341.344V896c0 20.528 22.544 42.672 42.656 42.672h115.808c20.128 0 54.864-22.144 54.864-42.672v-42.672h42.672C978.928 853.328 1024.032 808 1024.032 768V245.328c0-41.056-32.912-74.656-73.136-74.656zM938.704 768h-128v85.328H768.032V768H256.032v85.328h-42.672V768h-128V256h853.344zM149.36 640h128a21.328 21.328 0 0 0 21.344-21.328V576a21.328 21.328 0 0 0-21.344-21.328h-128A21.328 21.328 0 0 0 128.032 576v42.672A21.328 21.328 0 0 0 149.36 640z" fill="#409EFF" p-id="10604"></path></svg>