<?xml version="1.0" standalone="no"?><!DOCTYPE svg PUBLIC "-//W3C//DTD SVG 1.1//EN" "http://www.w3.org/Graphics/SVG/1.1/DTD/svg11.dtd"><svg t="1629207207261" class="icon" viewBox="0 0 1024 1024" version="1.1" xmlns="http://www.w3.org/2000/svg" p-id="3131" xmlns:xlink="http://www.w3.org/1999/xlink" width="246" height="246"><defs><style type="text/css"></style></defs><path d="M895.746 276.142l-368-208a32.004 32.004 0 0 0-31.492 0l-368 208A32 32 0 0 0 112 304v416a32 32 0 0 0 16.254 27.858l368 208A31.987 31.987 0 0 0 512 960c5.431 0 10.86-1.381 15.746-4.142l368-208A32 32 0 0 0 912 720V304a32 32 0 0 0-16.254-27.858zM345.75 640.01c-11.06 0-21.81-5.74-27.74-16.01-8.84-15.31-3.59-34.88 11.71-43.71L480 493.52V320c0-17.67 14.33-32 32-32s32 14.33 32 32v173.52l150.28 86.77c15.3 8.83 20.55 28.4 11.71 43.71-5.93 10.27-16.68 16.01-27.74 16.01-5.43 0-10.93-1.39-15.97-4.3L512 548.95l-150.28 86.76a31.855 31.855 0 0 1-15.97 4.3z" p-id="3132"></path></svg>